<svg width="16" height="16" viewBox="0 0 16 16" fill="none" xmlns="http://www.w3.org/2000/svg">
<path d="M3.62382 14.8976C3.35347 14.8976 3.08313 14.8276 2.8354 14.6863C2.58935 14.5485 2.38478 14.3473 2.243 14.1035C2.10122 13.8597 2.02743 13.5824 2.02933 13.3004V2.699C2.02933 2.11804 2.33057 1.59997 2.8354 1.31307C3.33968 1.02562 3.93885 1.03169 4.43816 1.32907L13.3441 6.63004C13.8313 6.92025 14.1226 7.43225 14.1226 7.99997C14.1226 8.56769 13.8313 9.07969 13.3441 9.3699L4.43871 14.6709C4.19251 14.8186 3.91093 14.8969 3.62382 14.8976ZM3.62602 2.20687C3.53995 2.20763 3.45547 2.23022 3.3805 2.27252C3.30451 2.31461 3.24131 2.37647 3.1976 2.45155C3.15389 2.52663 3.1313 2.61213 3.13223 2.699V13.3009C3.13223 13.5586 3.30547 13.6849 3.3805 13.7274C3.4556 13.7712 3.54115 13.7939 3.62809 13.793C3.71502 13.7922 3.8001 13.7678 3.8743 13.7225L12.7797 8.42149C12.996 8.29293 13.0197 8.08383 13.0197 7.99997C13.0197 7.91611 12.9965 7.707 12.7797 7.57845L3.87375 2.27749C3.79929 2.2315 3.71354 2.20705 3.62602 2.20687Z" fill="black"/>
</svg>
