<svg width="1920" height="196" viewBox="0 0 1920 196" fill="none" xmlns="http://www.w3.org/2000/svg">
<path d="M85.1404 193.159H0V2.84058H85.1404V193.159ZM269.46 193.159H23.0966V145.154H269.46V193.159ZM262.667 121.293H23.0966V73.571H262.667V121.293ZM269.46 50.8464H23.0966V2.84058H269.46V50.8464Z" fill="black"/>
<path d="M456.696 196C421.673 196 391.633 192.023 366.574 184.07C341.514 175.927 322.343 164.564 309.058 149.983C295.774 135.212 289.132 117.884 289.132 98C289.132 78.1159 295.774 60.8831 309.058 46.3014C322.343 31.5304 341.514 20.1681 366.574 12.2145C391.633 4.0715 421.673 0 456.696 0C490.812 0 519.947 3.21932 544.1 9.65797C568.556 16.0966 587.274 25.3758 600.257 37.4956C613.239 49.6155 619.73 64.1971 619.73 81.2406V86.0696H524.627V81.2406C524.627 70.4464 519.796 62.7768 510.135 58.2319C500.473 53.4976 483.113 51.1304 458.054 51.1304C437.524 51.1304 421.522 52.456 410.049 55.1072C398.879 57.5691 391.029 62.2087 386.5 69.0261C381.971 75.6541 379.707 85.3121 379.707 98C379.707 110.499 381.971 120.157 386.5 126.974C391.029 133.791 398.879 138.526 410.049 141.177C421.522 143.639 437.524 144.87 458.054 144.87C483.113 144.87 500.473 142.597 510.135 138.052C519.796 133.318 524.627 125.554 524.627 114.759V109.93H619.73V114.759C619.73 131.614 613.239 146.195 600.257 158.504C587.274 170.624 568.556 179.903 544.1 186.342C519.947 192.781 490.812 196 456.696 196Z" fill="black"/>
<path d="M953.739 193.159H868.599V2.84058H953.739V193.159ZM727.302 193.159H642.162V2.84058H727.302V193.159ZM912.528 121.577H664.353V73.571H912.528V121.577Z" fill="black"/>
<path d="M1144.42 196C1109.4 196 1079.21 192.023 1053.85 184.07C1028.79 175.927 1009.62 164.564 996.331 149.983C983.046 135.212 976.404 117.884 976.404 98C976.404 78.1159 983.046 60.8831 996.331 46.3014C1009.62 31.5304 1028.79 20.1681 1053.85 12.2145C1079.21 4.0715 1109.4 0 1144.42 0C1180.65 0 1211.3 4.0715 1236.35 12.2145C1261.72 20.1681 1281.04 31.5304 1294.32 46.3014C1307.61 60.8831 1314.25 78.1159 1314.25 98C1314.25 117.884 1307.61 135.212 1294.32 149.983C1281.04 164.564 1261.72 175.927 1236.35 184.07C1211.3 192.023 1180.65 196 1144.42 196ZM1144.42 144.87C1164.95 144.87 1180.95 143.639 1192.43 141.177C1203.9 138.526 1211.9 133.791 1216.43 126.974C1221.26 120.157 1223.67 110.499 1223.67 98C1223.67 85.3121 1221.26 75.6541 1216.43 69.0261C1211.9 62.2087 1203.9 57.5691 1192.43 55.1072C1180.95 52.456 1164.95 51.1304 1144.42 51.1304C1123.89 51.1304 1108.04 52.456 1096.87 55.1072C1085.7 57.5691 1077.85 62.2087 1073.32 69.0261C1069.09 75.6541 1066.98 85.3121 1066.98 98C1066.98 110.499 1069.09 120.157 1073.32 126.974C1077.85 133.791 1085.7 138.526 1096.87 141.177C1108.04 143.639 1123.89 144.87 1144.42 144.87Z" fill="black"/>
<path d="M1422.09 193.159H1336.95V2.84058H1422.09V193.159ZM1606.41 193.159H1360.05V145.154H1606.41V193.159ZM1599.62 121.293H1360.05V73.571H1599.62V121.293ZM1606.41 50.8464H1360.05V2.84058H1606.41V50.8464Z" fill="black"/>
<path d="M1777.8 196C1747 196 1720.43 193.633 1698.09 188.899C1675.75 183.975 1658.54 176.495 1646.46 166.458C1634.39 156.232 1628.35 143.071 1628.35 126.974V125.27H1713.49V131.235C1713.49 135.401 1714.85 138.715 1717.57 141.177C1720.58 143.449 1726.62 145.059 1735.68 146.006C1744.74 146.953 1758.78 147.426 1777.8 147.426C1795.01 147.426 1807.69 147.142 1815.84 146.574C1823.99 145.816 1829.12 144.68 1831.24 143.165C1833.65 141.461 1834.86 139.188 1834.86 136.348C1834.86 132.939 1832.75 130.383 1828.52 128.678C1824.59 126.974 1816.44 125.648 1804.06 124.701L1708.96 116.748C1690.24 115.043 1674.54 111.919 1661.86 107.374C1649.18 102.64 1639.67 96.485 1633.33 88.9101C1626.99 81.3353 1623.82 72.4348 1623.82 62.2087C1623.82 54.6338 1626.39 47.1536 1631.52 39.7681C1636.65 32.3826 1644.95 25.7546 1656.43 19.8841C1667.9 13.8242 1683 8.99517 1701.71 5.3971C1720.43 1.79903 1743.53 0 1771 0C1803.31 0 1829.88 2.84058 1850.71 8.52173C1871.84 14.0135 1887.54 21.9671 1897.81 32.3826C1908.38 42.6087 1913.66 54.8232 1913.66 69.0261V70.7304H1828.52V66.4696C1828.52 61.9246 1826.86 58.3266 1823.54 55.6754C1820.52 53.0242 1814.18 51.1304 1804.52 49.9942C1795.16 48.858 1780.97 48.2898 1761.95 48.2898C1747.45 48.2898 1736.43 48.7633 1728.89 49.7102C1721.34 50.4676 1716.06 51.6985 1713.04 53.4029C1710.32 55.1072 1708.96 57.3797 1708.96 60.2203C1708.96 62.114 1709.56 63.8184 1710.77 65.3333C1712.28 66.6589 1714.55 67.7005 1717.57 68.458C1720.89 69.2155 1725.26 69.8783 1730.7 70.4464L1825.8 79.2522C1850.56 81.5246 1869.73 85.5014 1883.32 91.1826C1896.9 96.6744 1906.41 103.208 1911.85 110.783C1917.28 118.357 1920 126.216 1920 134.359C1920 145.154 1915.17 155.285 1905.51 164.754C1896.15 174.033 1881.05 181.608 1860.22 187.478C1839.39 193.159 1811.91 196 1777.8 196Z" fill="black"/>
</svg>
